<svg xmlns="http://www.w3.org/2000/svg" xmlns:xlink="http://www.w3.org/1999/xlink" viewBox="0 0 50 50" version="1.1">
  <g id="surface1">
    <path style=" " d="M 25 2 C 12.316406 2 2 12.316406 2 25 C 2 37.683594 12.316406 48 25 48 C 37.683594 48 48 37.683594 48 25 C 48 12.316406 37.683594 2 25 2 Z M 17.128906 30.480469 C 19.085938 30.480469 20.570313 29.425781 20.980469 27.753906 L 23.269531 27.753906 C 22.859375 30.675781 20.429688 32.625 17.128906 32.625 C 13.015625 32.625 10.453125 29.660156 10.453125 24.871094 C 10.453125 20.074219 13.007813 17.109375 17.117188 17.109375 C 20.378906 17.109375 22.902344 19.222656 23.269531 22.238281 L 20.984375 22.238281 C 20.550781 20.421875 19.066406 19.253906 17.117188 19.253906 C 14.460938 19.253906 12.800781 21.417969 12.800781 24.871094 C 12.800781 28.316406 14.460938 30.480469 17.128906 30.480469 Z M 33.402344 30.480469 C 35.363281 30.480469 36.847656 29.425781 37.257813 27.753906 L 39.546875 27.753906 C 39.136719 30.675781 36.707031 32.625 33.402344 32.625 C 29.292969 32.625 26.730469 29.660156 26.730469 24.871094 C 26.730469 20.074219 29.28125 17.109375 33.394531 17.109375 C 36.65625 17.109375 39.179688 19.222656 39.546875 22.238281 L 37.261719 22.238281 C 36.828125 20.421875 35.34375 19.253906 33.394531 19.253906 C 30.738281 19.253906 29.078125 21.417969 29.078125 24.871094 C 29.078125 28.316406 30.738281 30.480469 33.402344 30.480469 Z "></path>
  </g>
</svg>