<svg version="1.1" id="Слой_1" xmlns="http://www.w3.org/2000/svg" xmlns:xlink="http://www.w3.org/1999/xlink" x="0px" y="0px" viewBox="0 0 128 128" enable-background="new 0 0 128 128" xml:space="preserve">
<g>
	<g>
		<g>
			<g>
				<path fill="#F37778" d="M31,121h66l-22.2-91c-0.4-1.7-1.9-3-3.7-3H56.9c-1.7,0-3.3,1.2-3.7,3L31,121z"></path>
			</g>
		</g>
	</g>
	<g>
		<g>
			<g>
				<polygon fill="#FFFFFF" points="40,83.9 34.8,105.3 93.2,105.3 93.2,105.3 88,83.9 				"></polygon>
			</g>
		</g>
		<g>
			<g>
				<polygon fill="#FFFFFF" points="49.8,43.5 44.6,65 83.4,65 78.2,43.5 				"></polygon>
			</g>
		</g>
		<g opacity="0.2">
			<g>
				<g>
					<g>
						<path d="M65.6,27h5.6c1.7,0,3.3,1.2,3.7,3L97,121H81.7l-12.5-91C68.8,28.2,67.3,27,65.6,27z"></path>
					</g>
				</g>
			</g>
		</g>
	</g>
	<g>
		<g>
			<g>
				<path fill="#454B54" d="M97,124H31c-0.9,0-1.8-0.4-2.4-1.1c-0.6-0.7-0.8-1.7-0.6-2.6l22.2-91c0.8-3.1,3.5-5.3,6.6-5.3h14.3
					c3.1,0,5.9,2.2,6.6,5.3l22.2,91c0.2,0.9,0,1.8-0.6,2.6C98.8,123.5,97.9,124,97,124z M34.8,118h58.4L71.9,30.6
					c-0.1-0.4-0.4-0.7-0.8-0.7H56.9c-0.4,0-0.7,0.3-0.8,0.7L34.8,118z"></path>
			</g>
		</g>
		<g>
			<g>
				<path fill="#454B54" d="M20,124c-1.7,0-3-1.3-3-3c0-1.7,1.3-3,3-3l88-0.1c0,0,0,0,0,0c1.7,0,3,1.3,3,3c0,1.7-1.3,3-3,3L20,124
					C20,124,20,124,20,124z"></path>
			</g>
		</g>
	</g>
</g>
</svg>