<svg xmlns="http://www.w3.org/2000/svg" xmlns:xlink="http://www.w3.org/1999/xlink" viewBox="0 0 48 48" version="1.1">
<g id="surface1">
<path style="fill:none;stroke-width:2;stroke-linecap:butt;stroke-linejoin:miter;stroke:#455A64;stroke-opacity:1;stroke-miterlimit:4;" d="M 28 9 L 30 3 "></path>
<path style="fill:none;stroke-width:2;stroke-linecap:butt;stroke-linejoin:miter;stroke:#455A64;stroke-opacity:1;stroke-miterlimit:4;" d="M 20 9 L 18 3 "></path>
<path style="fill:none;stroke-width:2;stroke-linecap:butt;stroke-linejoin:miter;stroke:#455A64;stroke-opacity:1;stroke-miterlimit:4;" d="M 14 5.5 C 14 4.117188 15.117188 3 16.5 3 L 31.5 3 C 32.882813 3 34 4.117188 34 5.5 "></path>
<path style=" fill:#607D8B;" d="M 14.285156 46.003906 L 18.460938 38.484375 L 16.714844 37.515625 L 12 46.003906 Z "></path>
<path style=" fill:#607D8B;" d="M 33.714844 46.003906 L 29.539063 38.484375 L 31.285156 37.515625 L 36 46.003906 Z "></path>
<path style=" fill:#CFD8DC;" d="M 38 39 L 38 13.5 C 38 9.910156 35.089844 7 31.5 7 L 16.5 7 C 12.910156 7 10 9.910156 10 13.5 L 10 39 C 10 39 10 41 12 41 C 14 41 34 41 36 41 C 38 41 38 39 38 39 Z "></path>
<path style=" fill:#FF3D00;" d="M 10 26 L 10 39 C 10 39 10 41 12 41 C 14 41 34 41 36 41 C 38 41 38 39 38 39 L 38 26 Z "></path>
<path style=" fill:#DD2C00;" d="M 24 27 C 21.792969 27 20 28.792969 20 31 C 20 33.207031 21.792969 35 24 35 C 26.207031 35 28 33.207031 28 31 C 28 28.792969 26.207031 27 24 27 Z "></path>
<path style=" fill:#F9FBE7;" d="M 26 31 C 26 32.105469 25.105469 33 24 33 C 22.894531 33 22 32.105469 22 31 C 22 29.894531 22.894531 29 24 29 C 25.105469 29 26 29.894531 26 31 Z "></path>
<path style=" fill:#90A4AE;" d="M 30 10 C 30 10.554688 29.554688 11 29 11 L 19 11 C 18.449219 11 18 10.554688 18 10 C 18 9.445313 18.449219 9 19 9 L 29 9 C 29.554688 9 30 9.445313 30 10 Z "></path>
<path style=" fill:#911F05;" d="M 18 36 L 30 36 L 30 39 L 18 39 Z "></path>
<path style=" fill:#455A64;" d="M 17 13 L 13.5 13 C 12.671875 13 12 13.671875 12 14.5 L 12 22.5 C 12 23.328125 12.671875 24 13.5 24 L 17 24 Z "></path>
<path style=" fill:#455A64;" d="M 19 13 L 29 13 L 29 24 L 19 24 Z "></path>
<path style=" fill:#455A64;" d="M 34.5 13 L 31 13 L 31 24 L 34.5 24 C 35.328125 24 36 23.328125 36 22.5 L 36 14.5 C 36 13.671875 35.328125 13 34.5 13 Z "></path>
</g>
</svg>