<?xml version="1.0" standalone="no"?>
<!DOCTYPE svg PUBLIC "-//W3C//DTD SVG 20010904//EN"
 "http://www.w3.org/TR/2001/REC-SVG-20010904/DTD/svg10.dtd">
<svg version="1.0" xmlns="http://www.w3.org/2000/svg"
 width="512.000000pt" height="512.000000pt" viewBox="0 0 512.000000 512.000000"
 preserveAspectRatio="xMidYMid meet">
<metadata>
Created by potrace 1.11, written by Peter Selinger 2001-2013
</metadata>
<g transform="translate(0.000000,512.000000) scale(0.100000,-0.100000)"
fill="#000000" stroke="none">
<path d="M1660 4894 c-139 -37 -246 -157 -268 -298 -5 -31 -7 -58 -4 -61 3 -3
51 -5 108 -5 l102 0 7 33 c10 45 51 97 92 114 20 8 58 13 91 11 l55 -3 52
-155 52 -155 116 -3 116 -3 -54 161 -54 160 489 0 489 0 -54 -160 -54 -161
116 3 116 3 52 155 52 155 44 3 c100 7 170 -34 190 -114 l11 -44 103 0 c56 0
104 2 107 5 11 11 -14 119 -37 166 -50 98 -134 166 -240 194 -86 22 -1710 22
-1795 -1z"/>
<path d="M1949 4131 c-41 -42 -41 -107 0 -153 l29 -33 582 0 582 0 29 33 c41
46 41 111 0 153 l-29 29 -582 0 -582 0 -29 -29z"/>
<path d="M1380 3729 c-14 -6 -36 -20 -48 -32 -53 -49 -52 -41 -52 -554 0 -459
1 -479 20 -511 41 -68 60 -72 303 -72 l217 0 0 590 0 590 -207 -1 c-115 0
-219 -5 -233 -10z"/>
<path d="M2020 3150 l0 -590 540 0 540 0 0 590 0 590 -540 0 -540 0 0 -590z"/>
<path d="M3300 3151 l0 -591 218 0 c242 0 261 4 302 72 19 32 20 52 20 514 l0
481 -22 33 c-50 73 -55 75 -299 78 l-219 3 0 -590z"/>
<path d="M1062 1628 l3 -723 29 -53 c21 -38 44 -61 75 -80 43 -25 54 -27 222
-32 l177 -5 -144 -259 c-79 -142 -144 -260 -144 -262 0 -2 55 -4 123 -4 l122
0 145 263 145 262 745 0 745 0 145 -262 145 -263 123 0 c67 0 122 2 122 4 0 2
-65 120 -144 262 l-144 259 177 5 c168 5 179 7 222 32 31 19 54 42 75 80 l29
53 3 723 3 722 -1501 0 -1501 0 3 -722z m1616 360 c27 -18 49 -45 67 -83 114
-233 -210 -419 -360 -207 -26 38 -30 52 -30 111 0 58 4 75 30 116 43 70 99 98
186 93 51 -3 75 -10 107 -30z"/>
</g>
</svg>
